<svg xmlns="http://www.w3.org/2000/svg" viewBox="0 0 512 512" width="512" height="512">
  <defs>
    <linearGradient id="grad2" x1="0%" y1="0%" x2="100%" y2="100%">
      <stop offset="0%" style="stop-color:#3b82f6;stop-opacity:1" />
      <stop offset="100%" style="stop-color:#1d4ed8;stop-opacity:1" />
    </linearGradient>
  </defs>
  
  <!-- Background circle -->
  <circle cx="256" cy="256" r="240" fill="url(#grad2)" stroke="#1e40af" stroke-width="8"/>
  
  <!-- Medical cross -->
  <rect x="224" y="128" width="64" height="256" fill="white" rx="12"/>
  <rect x="128" y="224" width="256" height="64" fill="white" rx="12"/>
  
  <!-- Heart icon overlay -->
  <path d="M256 380 L224 348 C200 324 188 300 188 276 C188 252 208 232 232 232 C244 232 256 238 256 250 C256 238 268 232 280 232 C304 232 324 252 324 276 C324 300 312 324 288 348 L256 380 Z" fill="#ef4444" opacity="0.8"/>
  
  <!-- Small stethoscope icon -->
  <circle cx="350" cy="162" r="32" fill="white" opacity="0.9"/>
  <circle cx="350" cy="162" r="22" fill="#3b82f6"/>
  <path d="M330 182 Q350 198 370 182" stroke="white" stroke-width="8" fill="none"/>
  
  <!-- Additional medical symbols -->
  <circle cx="400" cy="400" r="16" fill="white" opacity="0.7"/>
  <circle cx="112" cy="400" r="16" fill="white" opacity="0.7"/>
  <circle cx="400" cy="112" r="16" fill="white" opacity="0.7"/>
</svg>