<svg width="192" height="192" viewBox="0 0 192 192" xmlns="http://www.w3.org/2000/svg">
  <defs>
    <linearGradient id="bgGradient" x1="0%" y1="0%" x2="100%" y2="100%">
      <stop offset="0%" style="stop-color:#87CEEB;stop-opacity:1" />
      <stop offset="100%" style="stop-color:#4A90E2;stop-opacity:1" />
    </linearGradient>
    <linearGradient id="iconGradient" x1="0%" y1="0%" x2="100%" y2="100%">
      <stop offset="0%" style="stop-color:#5BA7F7;stop-opacity:1" />
      <stop offset="100%" style="stop-color:#4A90E2;stop-opacity:1" />
    </linearGradient>
  </defs>
  
  <!-- Rounded rectangle background -->
  <rect width="192" height="192" rx="45" ry="45" fill="url(#bgGradient)"/>
  
  <!-- Map background -->
  <g transform="translate(34, 112)">
    <polygon points="0,45 22,22 56,15 82,30 105,11 124,26 124,67 0,67" fill="rgba(255,255,255,0.9)"/>
    <polygon points="22,22 56,15 82,30 105,11 124,26 124,45 105,30 82,45 56,34 22,41" fill="rgba(255,255,255,0.7)"/>
  </g>
  
  <!-- Location pin -->
  <g transform="translate(75, 52)">
    <!-- Pin shadow -->
    <ellipse cx="21" cy="67" rx="7" ry="3" fill="rgba(0,0,0,0.1)"/>
    
    <!-- Pin body -->
    <path d="M21 15 C7.5 15 0 24 0 35.5 C0 47 21 67 21 67 C21 67 42 47 42 35.5 C42 24 34.5 15 21 15 Z" fill="white"/>
    
    <!-- Pin inner circle -->
    <circle cx="21" cy="35.5" r="13" fill="url(#iconGradient)"/>
    
    <!-- Medical cross -->
    <g transform="translate(15.5, 30)">
      <!-- Horizontal bar -->
      <rect x="0" y="3.5" width="11" height="3.5" rx="1" ry="1" fill="white"/>
      <!-- Vertical bar -->
      <rect x="3.5" y="0" width="3.5" height="11" rx="1" ry="1" fill="white"/>
    </g>
  </g>
</svg>