<svg xmlns="http://www.w3.org/2000/svg" viewBox="0 0 192 192" width="192" height="192">
  <defs>
    <linearGradient id="grad1" x1="0%" y1="0%" x2="100%" y2="100%">
      <stop offset="0%" style="stop-color:#3b82f6;stop-opacity:1" />
      <stop offset="100%" style="stop-color:#1d4ed8;stop-opacity:1" />
    </linearGradient>
  </defs>
  
  <!-- Background circle -->
  <circle cx="96" cy="96" r="88" fill="url(#grad1)" stroke="#1e40af" stroke-width="4"/>
  
  <!-- Medical cross -->
  <rect x="84" y="48" width="24" height="96" fill="white" rx="4"/>
  <rect x="48" y="84" width="96" height="24" fill="white" rx="4"/>
  
  <!-- Heart icon overlay -->
  <path d="M96 140 L84 128 C76 120 72 112 72 104 C72 96 78 90 86 90 C90 90 94 92 96 95 C98 92 102 90 106 90 C114 90 120 96 120 104 C120 112 116 120 108 128 L96 140 Z" fill="#ef4444" opacity="0.8"/>
  
  <!-- Small stethoscope icon -->
  <circle cx="130" cy="62" r="12" fill="white" opacity="0.9"/>
  <circle cx="130" cy="62" r="8" fill="#3b82f6"/>
  <path d="M124 68 Q130 74 136 68" stroke="white" stroke-width="3" fill="none"/>
</svg>